<svg width="120" height="120" viewBox="0 0 120 120" fill="none" xmlns="http://www.w3.org/2000/svg">
  <!-- 背景圆 -->
  <circle cx="60" cy="60" r="55" fill="#E8F5E9"/>
  <!-- 昆虫身体 -->
  <rect x="40" y="45" width="40" height="30" rx="15" fill="#4CAF50"/>
  <!-- 头部 -->
  <circle cx="60" cy="35" r="15" fill="#4CAF50"/>
  <!-- 眼睛 -->
  <circle cx="52" cy="30" r="5" fill="white"/>
  <circle cx="68" cy="30" r="5" fill="white"/>
  <circle cx="52" cy="30" r="2" fill="black"/>
  <circle cx="68" cy="30" r="2" fill="black"/>
  <!-- 触角 -->
  <path d="M52 20C45 15 40 10 35 15" stroke="#388E3C" stroke-width="2" stroke-linecap="round"/>
  <path d="M68 20C75 15 80 10 85 15" stroke="#388E3C" stroke-width="2" stroke-linecap="round"/>
  <!-- 腿部 -->
  <path d="M45 45C35 35 30 40 30 50" stroke="#388E3C" stroke-width="3" stroke-linecap="round"/>
  <path d="M45 55C35 50 30 55 30 65" stroke="#388E3C" stroke-width="3" stroke-linecap="round"/>
  <path d="M45 65C35 70 30 65 30 75" stroke="#388E3C" stroke-width="3" stroke-linecap="round"/>
  <path d="M75 45C85 35 90 40 90 50" stroke="#388E3C" stroke-width="3" stroke-linecap="round"/>
  <path d="M75 55C85 50 90 55 90 65" stroke="#388E3C" stroke-width="3" stroke-linecap="round"/>
  <path d="M75 65C85 70 90 65 90 75" stroke="#388E3C" stroke-width="3" stroke-linecap="round"/>
  <!-- 翅膀 -->
  <ellipse cx="45" cy="55" rx="15" ry="25" fill="rgba(255,255,255,0.3)" stroke="rgba(255,255,255,0.5)" stroke-width="1"/>
  <ellipse cx="75" cy="55" rx="15" ry="25" fill="rgba(255,255,255,0.3)" stroke="rgba(255,255,255,0.5)" stroke-width="1"/>
</svg>